<svg id="Group_254" data-name="Group 254" xmlns="http://www.w3.org/2000/svg" width="34.561" height="33.988" viewBox="0 0 34.561 33.988">
  <g id="Group_253" data-name="Group 253" transform="translate(0 0)">
    <path id="Path_202" data-name="Path 202" d="M90.918,28.617c1.423,2.007,2.844,3.8,3.786,4.958.137.168.266.324.39.475H92.252a.576.576,0,1,0,0,1.152h9.216a.576.576,0,1,0,0-1.152H98.626l.391-.475c.941-1.152,2.362-2.951,3.786-4.958a50.61,50.61,0,0,0,3.805-6.133,13.471,13.471,0,0,0,1.773-5.7,11.513,11.513,0,0,0-3.374-8.157.576.576,0,1,0-.815.814,10.365,10.365,0,0,1,3.037,7.343,12.417,12.417,0,0,1-1.647,5.177,49.467,49.467,0,0,1-3.719,5.991c-1.4,1.981-2.808,3.756-3.738,4.9-.309.379-.588.714-.825,1a.584.584,0,0,1-.878,0c-.237-.283-.516-.619-.825-1-.93-1.14-2.334-2.915-3.738-4.9a49.467,49.467,0,0,1-3.719-5.991,12.4,12.4,0,0,1-1.647-5.177A10.371,10.371,0,0,1,100.9,7.216a.576.576,0,1,0,.45-1.061A11.525,11.525,0,0,0,85.34,16.784a13.493,13.493,0,0,0,1.773,5.7A50.577,50.577,0,0,0,90.918,28.617Z" transform="translate(-79.579 -5.246)" fill="#fff"/>
    <path id="Path_203" data-name="Path 203" d="M176.421,83.237a.576.576,0,1,0,0-1.152,5.76,5.76,0,1,0,4.073,1.687.576.576,0,1,0-.814.814,4.608,4.608,0,1,1-3.259-1.35Z" transform="translate(-159.14 -76.898)" fill="#fff"/>
    <path id="Path_204" data-name="Path 204" d="M34.345,370.925,30.8,364.588a1.79,1.79,0,0,0-1.567-.9H25.13a.576.576,0,1,0,0,1.152h4.105a.639.639,0,0,1,.563.315l3.541,6.336a.518.518,0,0,1-.005.532.634.634,0,0,1-.558.305H1.786a.634.634,0,0,1-.557-.305.519.519,0,0,1-.005-.532l3.541-6.336a.638.638,0,0,1,.562-.315H9.433a.576.576,0,1,0,0-1.152H5.328a1.791,1.791,0,0,0-1.569.9L.217,370.925A1.671,1.671,0,0,0,.235,372.6a1.774,1.774,0,0,0,1.551.874h30.99a1.774,1.774,0,0,0,1.551-.874A1.67,1.67,0,0,0,34.345,370.925Z" transform="translate(0 -339.488)" fill="#fff"/>
    <path id="Path_205" data-name="Path 205" d="M354.477,406.351h-2.3a.579.579,0,0,0-.32.1l-1.728,1.152a.576.576,0,1,0,.639.959l1.581-1.055h2.131a.576.576,0,0,0,0-1.152Z" transform="translate(-326.252 -379.275)" fill="#fff"/>
    <path id="Path_206" data-name="Path 206" d="M366.937,458.127a.576.576,0,0,0,.576.576h4.608a.576.576,0,0,0,0-1.152h-4.608A.576.576,0,0,0,366.937,458.127Z" transform="translate(-342.168 -427.019)" fill="#fff"/>
    <path id="Path_207" data-name="Path 207" d="M89.945,408.654a.576.576,0,0,0,.32-1.055l-1.728-1.152a.58.58,0,0,0-.32-.1h-2.3a.576.576,0,1,0,0,1.152h2.131l1.583,1.055A.575.575,0,0,0,89.945,408.654Z" transform="translate(-79.577 -379.274)" fill="#fff"/>
    <path id="Path_208" data-name="Path 208" d="M60.313,457.551a.576.576,0,1,0,0,1.152h4.608a.576.576,0,1,0,0-1.152Z" transform="translate(-55.705 -427.019)" fill="#fff"/>
  </g>
</svg>
