<svg id="Layer_1" data-name="Layer 1" xmlns="http://www.w3.org/2000/svg" xmlns:xlink="http://www.w3.org/1999/xlink" viewBox="0 0 831.11 259.29"><defs><style>.cls-1{fill:#003056;}.cls-2{fill:url(#linear-gradient);}.cls-3{fill:#fff;stroke:#06293a;}.cls-3,.cls-4{stroke-miterlimit:10;}.cls-4{stroke:#000;fill:url(#linear-gradient-2);}.cls-5{fill:url(#linear-gradient-3);}.cls-6{fill:url(#linear-gradient-4);}.cls-7{fill:url(#linear-gradient-5);}.cls-8{fill:#6b7174;}.cls-9{fill:#31c6fa;}.cls-10{fill:#71c5d8;}</style><linearGradient id="linear-gradient" x1="22.55" y1="109.34" x2="161.05" y2="109.34" gradientUnits="userSpaceOnUse"><stop offset="0.21" stop-color="#3fa9f5"/><stop offset="0.91" stop-color="#0071bc"/></linearGradient><linearGradient id="linear-gradient-2" x1="228.09" y1="-1259.8" x2="228.09" y2="-1259.8" gradientTransform="translate(-13499.69 175.92) scale(60.66 0.09)" gradientUnits="userSpaceOnUse"><stop offset="0" stop-color="#fff"/><stop offset="1" stop-color="#fff"/><stop offset="1"/></linearGradient><linearGradient id="linear-gradient-3" x1="31.59" y1="93.01" x2="73.44" y2="53.99" gradientUnits="userSpaceOnUse"><stop offset="0" stop-color="#37bef3"/><stop offset="1" stop-color="#6cd3fe"/></linearGradient><linearGradient id="linear-gradient-4" x1="128.74" y1="101.1" x2="176.29" y2="56.76" xlink:href="#linear-gradient-3"/><linearGradient id="linear-gradient-5" x1="78.48" y1="164.81" x2="130.05" y2="116.72" xlink:href="#linear-gradient-3"/></defs><title>logo</title><path class="cls-1" d="M3.28,24.6S1.15-.58,30.94,5.72L139.47,20.41s15.29,1.3,14.89,21V238.64s1.4,17.07-14.89,18.89L26.69,263.82S3.76,266.71,3.28,249.13Z" transform="translate(-3.25 -4.71)"/><path class="cls-2" d="M12.26,205.71l136.32-4.18,2.13-150.37s2.13-23-21.3-25.06L37.82,13.57S13.76,7.71,12.26,32.37Z" transform="translate(-3.25 -4.71)"/><circle class="cls-3" cx="85.27" cy="229.25" r="17.75"/><path class="cls-4" d="M337.26,63.21" transform="translate(-3.25 -4.71)"/><polygon class="cls-5" points="72.52 98 32.52 94 32.52 49 72.52 53 72.52 98"/><polygon class="cls-6" points="176.52 105 130.52 103 130.52 51 176.52 57 176.52 105"/><polygon class="cls-7" points="127.52 170 80.52 167 80.52 112 127.52 114 127.52 170"/><path class="cls-8" d="M201.35,190.47h6.93v44.1h-6.93Z" transform="translate(-3.25 -4.71)"/><path class="cls-8" d="M222.7,190.47h9.89L237,222h.13l4.41-31.56h9.89v44.1h-6.55V201.18h-.13l-5,33.39h-5.79l-5-33.39h-.13v33.39H222.7Z" transform="translate(-3.25 -4.71)"/><path class="cls-8" d="M265.86,190.47h18.9v6.3h-12v11.65h9.51v6.3h-9.51v13.55h12v6.3h-18.9Z" transform="translate(-3.25 -4.71)"/><path class="cls-8" d="M298,190.47h6.93v44.1H298Z" transform="translate(-3.25 -4.71)"/><path class="cls-8" d="M340.86,232.36q-2.62-2.84-2.62-8V200.67q0-5.16,2.62-8t7.59-2.83q5,0,7.59,2.83c1.74,1.89,2.62,4.56,2.62,8v4.66H352.1v-5.1q0-4.09-3.46-4.09t-3.47,4.09v24.63q0,4,3.47,4t3.46-4v-6.74h6.56v6.24c0,3.44-.88,6.11-2.62,8s-4.27,2.84-7.59,2.84S342.6,234.25,340.86,232.36Z" transform="translate(-3.25 -4.71)"/><path class="cls-8" d="M372.07,190.47H379v17.95h7.44V190.47h6.93v44.1h-6.93V214.72H379v19.85h-6.93Z" transform="translate(-3.25 -4.71)"/><path class="cls-8" d="M407.79,190.47H426.7v6.3h-12v11.65h9.52v6.3h-9.52v13.55h12v6.3H407.79Z" transform="translate(-3.25 -4.71)"/><path class="cls-8" d="M442.1,232.36q-2.62-2.84-2.62-8V200.67q0-5.16,2.62-8t7.59-2.83q5,0,7.59,2.83c1.74,1.89,2.62,4.56,2.62,8v4.66h-6.56v-5.1q0-4.09-3.46-4.09t-3.47,4.09v24.63q0,4,3.47,4t3.46-4v-6.74h6.56v6.24c0,3.44-.88,6.11-2.62,8s-4.27,2.84-7.59,2.84S443.84,234.25,442.1,232.36Z" transform="translate(-3.25 -4.71)"/><path class="cls-8" d="M473.31,190.47h6.93v18.58l8.82-18.58H496l-8.25,16.19,8.38,27.91h-7.24L483,214.91l-2.78,5.61v14h-6.93Z" transform="translate(-3.25 -4.71)"/><path class="cls-8" d="M529.38,232.33q-2.58-2.87-2.58-8.22v-2.52h6.55v3q0,4.29,3.59,4.29a3.39,3.39,0,0,0,2.68-1,5.07,5.07,0,0,0,.91-3.37,9.37,9.37,0,0,0-1.26-4.89,23.51,23.51,0,0,0-4.66-5.07,27.82,27.82,0,0,1-6-6.83,13.9,13.9,0,0,1-1.71-6.9c0-3.49.89-6.19,2.65-8.1s4.33-2.86,7.69-2.86,5.83.95,7.53,2.86,2.55,4.65,2.55,8.22v1.83h-6.55v-2.27a5,5,0,0,0-.89-3.3,3.18,3.18,0,0,0-2.58-1c-2.31,0-3.46,1.4-3.46,4.22a8.35,8.35,0,0,0,1.29,4.47,24.36,24.36,0,0,0,4.69,5,26.05,26.05,0,0,1,6,6.87,15.23,15.23,0,0,1,1.63,7.24c0,3.61-.89,6.39-2.67,8.32s-4.38,2.9-7.79,2.9S531.1,234.24,529.38,232.33Z" transform="translate(-3.25 -4.71)"/><path class="cls-8" d="M560.69,190.47h18.9v6.3h-12v11.65h9.52v6.3h-9.52v13.55h12v6.3h-18.9Z" transform="translate(-3.25 -4.71)"/><path class="cls-8" d="M592.82,190.47h10.27c3.57,0,6.18.83,7.81,2.49s2.46,4.21,2.46,7.65v2.71q0,6.87-4.54,8.69v.13a5.39,5.39,0,0,1,3.56,3.08,15.47,15.47,0,0,1,1,6.24v7.75a28,28,0,0,0,.13,3.06,7.53,7.53,0,0,0,.63,2.3h-7.06a10.07,10.07,0,0,1-.5-2,28.58,28.58,0,0,1-.13-3.4v-8.07c0-2-.32-3.42-1-4.22a4.16,4.16,0,0,0-3.37-1.19h-2.4v18.9h-6.93Zm9.45,18.9a4.13,4.13,0,0,0,3.12-1.08,5.07,5.07,0,0,0,1-3.59v-3.4a5.57,5.57,0,0,0-.85-3.46,3.2,3.2,0,0,0-2.68-1.07h-3.15v12.6Z" transform="translate(-3.25 -4.71)"/><path class="cls-8" d="M625.65,190.47h7l4.53,34.2h.13l4.54-34.2h6.36l-6.68,44.1h-9.2Z" transform="translate(-3.25 -4.71)"/><path class="cls-8" d="M660.8,190.47h6.93v44.1H660.8Z" transform="translate(-3.25 -4.71)"/><path class="cls-8" d="M684.33,232.36c-1.74-1.89-2.62-4.56-2.62-8V200.67c0-3.44.88-6.11,2.62-8s4.27-2.83,7.59-2.83,5.85.94,7.59,2.83,2.62,4.56,2.62,8v4.66h-6.56v-5.1q0-4.09-3.46-4.09t-3.47,4.09v24.63q0,4,3.47,4t3.46-4v-6.74h6.56v6.24c0,3.44-.88,6.11-2.62,8s-4.27,2.84-7.59,2.84S686.07,234.25,684.33,232.36Z" transform="translate(-3.25 -4.71)"/><path class="cls-8" d="M715.54,190.47h18.91v6.3h-12v11.65H732v6.3h-9.52v13.55h12v6.3H715.54Z" transform="translate(-3.25 -4.71)"/><path class="cls-8" d="M749.06,232.33q-2.58-2.87-2.58-8.22v-2.52H753v3q0,4.29,3.59,4.29a3.4,3.4,0,0,0,2.68-1,5.07,5.07,0,0,0,.91-3.37A9.37,9.37,0,0,0,759,219.6a23.51,23.51,0,0,0-4.66-5.07,28.11,28.11,0,0,1-6-6.83,14,14,0,0,1-1.7-6.9q0-5.24,2.65-8.1t7.68-2.86q5,0,7.53,2.86t2.55,8.22v1.83h-6.55v-2.27a5,5,0,0,0-.88-3.3,3.18,3.18,0,0,0-2.58-1c-2.31,0-3.47,1.4-3.47,4.22a8.35,8.35,0,0,0,1.29,4.47,24.46,24.46,0,0,0,4.7,5,25.8,25.8,0,0,1,6,6.87,15.23,15.23,0,0,1,1.64,7.24c0,3.61-.89,6.39-2.68,8.32s-4.37,2.9-7.78,2.9S750.78,234.24,749.06,232.33Z" transform="translate(-3.25 -4.71)"/><path class="cls-1" d="M201,56.74h14.52v92.4H201Z" transform="translate(-3.25 -4.71)"/><path class="cls-1" d="M227.7,56.74h20.72l9.24,66.13h.26l9.24-66.13h20.73v92.4H274.16v-70h-.26l-10.56,70H251.19l-10.56-70h-.26v70H227.7Z" transform="translate(-3.25 -4.71)"/><path class="cls-1" d="M300,56.74h39.6v13.2H314.55V94.36h19.93v13.2H314.55v28.38h25.08v13.2H300Z" transform="translate(-3.25 -4.71)"/><path class="cls-1" d="M349.27,56.74h14.52v92.4H349.27Z" transform="translate(-3.25 -4.71)"/><path class="cls-9" d="M380.48,144.52Q375,138.58,375,127.75V78.12q0-10.82,5.48-16.76t15.91-5.94q10.42,0,15.9,5.94t5.48,16.76v9.77H404V77.2q0-8.58-7.26-8.58t-7.26,8.58v51.61q0,8.44,7.26,8.45t7.26-8.45V114.69h13.73v13.06q0,10.83-5.48,16.77t-15.9,5.94Q386,150.46,380.48,144.52Z" transform="translate(-3.25 -4.71)"/><path class="cls-9" d="M427.8,56.74h14.52V94.36H457.9V56.74h14.52v92.4H457.9V107.56H442.32v41.58H427.8Z" transform="translate(-3.25 -4.71)"/><path class="cls-9" d="M484.56,56.74h39.6v13.2H499.08V94.36H519v13.2H499.08v28.38h25.08v13.2h-39.6Z" transform="translate(-3.25 -4.71)"/><path class="cls-9" d="M538.35,144.52q-5.48-5.94-5.48-16.77V78.12q0-10.82,5.48-16.76t15.91-5.94q10.43,0,15.9,5.94t5.48,16.76v9.77H561.91V77.2q0-8.58-7.26-8.58t-7.26,8.58v51.61q0,8.44,7.26,8.45t7.26-8.45V114.69h13.73v13.06q0,10.83-5.48,16.77t-15.9,5.94Q543.82,150.46,538.35,144.52Z" transform="translate(-3.25 -4.71)"/><path class="cls-9" d="M585.67,56.74h14.52V95.68l18.48-38.94h14.52L615.9,90.66l17.56,58.48H618.28L606,108l-5.81,11.75v29.44H585.67Z" transform="translate(-3.25 -4.71)"/><path class="cls-10" d="M642,136.15h14v14H642Z" transform="translate(-3.25 -4.71)"/><path class="cls-1" d="M672.72,145.52q-5.47-5.94-5.48-16.77V79.12q0-10.82,5.48-16.76t15.91-5.94q10.43,0,15.9,5.94T710,79.12v9.77H696.28V78.2q0-8.58-7.26-8.58t-7.26,8.58v51.61q0,8.44,7.26,8.45t7.26-8.45V115.69H710v13.06q0,10.83-5.48,16.77t-15.9,5.94Q678.19,151.46,672.72,145.52Z" transform="translate(-3.25 -4.71)"/><path class="cls-1" d="M724.66,145.39Q719,139.32,719,128.23V79.65q0-11.09,5.67-17.16T741,56.42q10.69,0,16.37,6.07t5.68,17.16v48.58q0,11.09-5.68,17.16T741,151.46Q730.34,151.46,724.66,145.39Zm23.9-16.24V78.73q0-9.12-7.53-9.11t-7.52,9.11v50.42q0,9.1,7.52,9.11T748.56,129.15Z" transform="translate(-3.25 -4.71)"/><path class="cls-1" d="M774.16,57.74h20.73l9.24,66.13h.26l9.24-66.13h20.72v92.4H820.63v-70h-.27l-10.56,70H797.66l-10.56-70h-.26v70H774.16Z" transform="translate(-3.25 -4.71)"/></svg>