<svg xmlns="http://www.w3.org/2000/svg" width="49.266" height="85.999" viewBox="0 0 49.266 85.999">
  <g id="apple" transform="translate(-97.742)">
    <path id="Path_215" data-name="Path 215" d="M153.7,54.5a1.48,1.48,0,1,0,1.462,1.48A1.473,1.473,0,0,0,153.7,54.5Z" transform="translate(-44.538 -44.42)" fill="#003056"/>
    <path id="Path_216" data-name="Path 216" d="M145.107,36.011A5.983,5.983,0,0,0,139.167,30h-5.484a6.011,6.011,0,0,0,0,12.021h5.484A5.983,5.983,0,0,0,145.107,36.011Zm-14.623,0a3.222,3.222,0,0,1,3.2-3.237h5.484a3.237,3.237,0,0,1,0,6.473h-5.484A3.222,3.222,0,0,1,130.484,36.011Z" transform="translate(-24.516 -24.452)" fill="#003056"/>
    <path id="Path_217" data-name="Path 217" d="M227.134,127.233a1.359,1.359,0,0,0,.97-.406l2.013-2.036a1.4,1.4,0,0,0,0-1.962,1.36,1.36,0,0,0-1.939,0l-2.012,2.036a1.4,1.4,0,0,0,0,1.962A1.357,1.357,0,0,0,227.134,127.233Z" transform="translate(-104.62 -99.781)" fill="#003056"/>
    <path id="Path_218" data-name="Path 218" d="M188.369,150.223a7.56,7.56,0,0,0-3.929,1.153,7.561,7.561,0,0,0-3.93-1.153,6.766,6.766,0,0,0-5.448,2.768A8.688,8.688,0,0,0,173.9,160.6c1.413,5.063,4.521,8.335,7.918,8.335a5.475,5.475,0,0,0,2.617-.681,5.475,5.475,0,0,0,2.617.681h0c2.584,0,5.029-1.894,6.707-5.2a1.4,1.4,0,0,0,.055-1.146,1.378,1.378,0,0,0-.817-.8,2.356,2.356,0,0,1,.735-4.57,1.366,1.366,0,0,0,1.081-.565,1.4,1.4,0,0,0,.212-1.212A7,7,0,0,0,188.369,150.223Zm.339,9.355a5.156,5.156,0,0,0,1.95,4.039c-1.075,1.612-2.371,2.542-3.6,2.542a3.084,3.084,0,0,1-1.815-.664,1.358,1.358,0,0,0-1.6,0,3.083,3.083,0,0,1-1.815.664c-2.071,0-4.242-2.6-5.279-6.315a5.928,5.928,0,0,1,.705-5.178A4.056,4.056,0,0,1,180.51,153a5.145,5.145,0,0,1,3.1,1.158,1.358,1.358,0,0,0,1.655,0,5.145,5.145,0,0,1,3.1-1.157,4.049,4.049,0,0,1,3.409,1.873A5.157,5.157,0,0,0,188.708,159.578Z" transform="translate(-61.926 -122.44)" fill="#003056"/>
    <path id="Path_219" data-name="Path 219" d="M140.9,0H103.848a6.149,6.149,0,0,0-6.106,6.178V79.822A6.149,6.149,0,0,0,103.848,86H140.9a6.149,6.149,0,0,0,6.106-6.178V6.178A6.149,6.149,0,0,0,140.9,0Zm3.364,79.822a3.388,3.388,0,0,1-3.364,3.4H103.848a3.388,3.388,0,0,1-3.364-3.4V6.178a3.388,3.388,0,0,1,3.364-3.4H140.9a3.388,3.388,0,0,1,3.364,3.4V79.822Z" fill="#003056"/>
  </g>
</svg>
