<svg id="scan" xmlns="http://www.w3.org/2000/svg" width="54.395" height="85.886" viewBox="0 0 54.395 85.886">
  <path id="Path_220" data-name="Path 220" d="M47.238,0H7.157A7.166,7.166,0,0,0,0,7.157V78.729a7.166,7.166,0,0,0,7.157,7.157h40.08a7.165,7.165,0,0,0,7.157-7.157V7.157A7.165,7.165,0,0,0,47.238,0ZM2.863,14.314H51.532V71.572H2.863ZM7.158,2.863h40.08a4.294,4.294,0,0,1,4.294,4.295v4.294H2.863V7.157A4.294,4.294,0,0,1,7.158,2.863Zm40.08,80.161H7.158a4.294,4.294,0,0,1-4.295-4.295V74.435H51.532v4.294a4.294,4.294,0,0,1-4.294,4.295Zm0,0" fill="#003056"/>
  <path id="Path_221" data-name="Path 221" d="M149.361,460.8H146.5a1.431,1.431,0,1,0,0,2.863h2.863a1.431,1.431,0,0,0,0-2.863Zm0,0" transform="translate(-120.732 -383.503)" fill="#003056"/>
  <path id="Path_222" data-name="Path 222" d="M44.1,37h2.863a1.431,1.431,0,1,0,0-2.863H44.1A1.431,1.431,0,0,0,44.1,37Zm0,0" transform="translate(-35.511 -28.407)" fill="#003056"/>
  <path id="Path_223" data-name="Path 223" d="M95.3,37h5.726a1.431,1.431,0,1,0,0-2.863H95.3A1.431,1.431,0,0,0,95.3,37Zm0,0" transform="translate(-78.121 -28.407)" fill="#003056"/>
  <path id="Path_224" data-name="Path 224" d="M69.7,170.721h5.726a1.431,1.431,0,0,0,1.431-1.431v-5.726a1.431,1.431,0,0,0-1.431-1.432H69.7a1.432,1.432,0,0,0-1.432,1.432v5.726A1.431,1.431,0,0,0,69.7,170.721ZM71.128,165h2.863v2.863H71.128Zm0,0" transform="translate(-56.814 -134.936)" fill="#003056"/>
  <path id="Path_225" data-name="Path 225" d="M211.958,162.133h-5.726a1.431,1.431,0,0,0-1.431,1.432v5.726a1.431,1.431,0,0,0,1.431,1.431h5.726a1.431,1.431,0,0,0,1.431-1.431v-5.726A1.431,1.431,0,0,0,211.958,162.133Zm-1.432,5.726h-2.863V165h2.863Zm0,0" transform="translate(-170.446 -134.936)" fill="#003056"/>
  <path id="Path_226" data-name="Path 226" d="M75.423,298.668H69.7a1.431,1.431,0,0,0-1.432,1.431v5.726a1.432,1.432,0,0,0,1.432,1.432h5.726a1.431,1.431,0,0,0,1.431-1.432V300.1A1.431,1.431,0,0,0,75.423,298.668Zm-1.432,5.726H71.129v-2.863h2.863Zm0,0" transform="translate(-56.815 -248.567)" fill="#003056"/>
  <path id="Path_227" data-name="Path 227" d="M137.966,165h5.726a1.431,1.431,0,1,0,0-2.863h-5.726a1.431,1.431,0,0,0,0,2.863Zm0,0" transform="translate(-113.631 -134.935)" fill="#003056"/>
  <path id="Path_228" data-name="Path 228" d="M69.7,231.888a1.431,1.431,0,0,0,1.431-1.432v-2.863h2.863v1.432a1.431,1.431,0,0,0,2.863,0v-1.432h4.295a1.431,1.431,0,1,0,0-2.863H78.286V223.3a1.431,1.431,0,0,0-2.863,0v1.432H71.128a1.431,1.431,0,1,0-2.863,0v5.726A1.432,1.432,0,0,0,69.7,231.888Zm0,0" transform="translate(-56.814 -184.65)" fill="#003056"/>
  <path id="Path_229" data-name="Path 229" d="M226.162,315.734a1.431,1.431,0,0,0-1.432,1.431V318.6H223.3a1.431,1.431,0,0,0,0,2.863h2.863a1.431,1.431,0,0,0,1.431-1.432v-2.863A1.431,1.431,0,0,0,226.162,315.734Zm0,0" transform="translate(-184.65 -262.771)" fill="#003056"/>
  <path id="Path_230" data-name="Path 230" d="M146.555,290.19h-2.863v-2.863h1.432a1.431,1.431,0,0,0,0-2.863h-1.432v-1.432a1.431,1.431,0,0,0-2.863,0H139.4a1.431,1.431,0,1,0,0,2.863h1.431v4.295H139.4v-1.432a1.431,1.431,0,0,0-2.863,0v2.863a1.431,1.431,0,0,0,1.431,1.432h8.589a1.431,1.431,0,1,0,0-2.863Zm0,0" transform="translate(-113.632 -234.364)" fill="#003056"/>
  <path id="Path_231" data-name="Path 231" d="M240.366,230.4a1.432,1.432,0,0,0-1.432,1.432v8.589a1.431,1.431,0,1,0,2.863,0V231.83A1.432,1.432,0,0,0,240.366,230.4Zm0,0" transform="translate(-198.853 -191.749)" fill="#003056"/>
  <path id="Path_232" data-name="Path 232" d="M189.166,227.593H190.6v1.432a1.431,1.431,0,0,0,2.863,0v-2.863a1.432,1.432,0,0,0-1.432-1.432V223.3a1.431,1.431,0,0,0-2.863,0v1.432a1.431,1.431,0,0,0,0,2.863Zm0,0" transform="translate(-156.243 -184.65)" fill="#003056"/>
  <path id="Path_233" data-name="Path 233" d="M137.966,193.46h2.863a1.432,1.432,0,0,0,1.432-1.432h1.431a1.431,1.431,0,1,0,0-2.863H142.26a1.431,1.431,0,0,0-2.863,0V190.6h-1.432a1.431,1.431,0,0,0,0,2.863Zm0,0" transform="translate(-113.631 -156.242)" fill="#003056"/>
  <path id="Path_234" data-name="Path 234" d="M125.195,274.5a1.432,1.432,0,0,0-1.432-1.432H120.9a1.431,1.431,0,0,0,0,2.863h2.863A1.431,1.431,0,0,0,125.195,274.5Zm0,0" transform="translate(-99.429 -227.261)" fill="#003056"/>
  <path id="Path_235" data-name="Path 235" d="M162.133,240.366v2.863a1.431,1.431,0,0,0,2.863,0v-2.863a1.431,1.431,0,1,0-2.863,0Zm0,0" transform="translate(-134.936 -198.853)" fill="#003056"/>
  <path id="Path_236" data-name="Path 236" d="M216.194,294.427v-2.863a1.431,1.431,0,1,0-2.863,0v2.863a1.431,1.431,0,0,0,2.863,0Zm0,0" transform="translate(-177.546 -241.464)" fill="#003056"/>
  <path id="Path_237" data-name="Path 237" d="M183.494,273.066h-2.863a1.431,1.431,0,1,0,0,2.863h2.863a1.431,1.431,0,0,0,0-2.863Zm0,0" transform="translate(-149.139 -227.26)" fill="#003056"/>
</svg>
