<svg xmlns="http://www.w3.org/2000/svg" width="86" height="86" viewBox="0 0 86 86">
  <g id="unlock_2_" data-name="unlock (2)" transform="translate(-1 -1)">
    <rect id="Rectangle_120" data-name="Rectangle 120" width="8" height="2" transform="translate(40 5)" fill="#003056"/>
    <rect id="Rectangle_121" data-name="Rectangle 121" width="2" height="2" transform="translate(52.8 5)" fill="#003056"/>
    <rect id="Rectangle_122" data-name="Rectangle 122" width="2" height="2" transform="translate(33.2 5)" fill="#003056"/>
    <rect id="Rectangle_123" data-name="Rectangle 123" width="6" height="2" transform="translate(41 81)" fill="#003056"/>
    <path id="Path_213" data-name="Path 213" d="M82.011,31.516a4.171,4.171,0,0,1-2.6-.911l-3.9-3.117a6.949,6.949,0,0,0-4.332-1.52H68.968V7.935A6.943,6.943,0,0,0,62.032,1H25.968a6.943,6.943,0,0,0-6.935,6.935V27.355h1.387A16.658,16.658,0,0,1,36.994,42.613H35.677a4.156,4.156,0,0,0-.126,8.31A16.644,16.644,0,1,1,16.576,27.8l-.637-2.7a19.409,19.409,0,0,0,3.093,38.248V80.065A6.943,6.943,0,0,0,25.968,87H62.032a6.943,6.943,0,0,0,6.935-6.935V59.971l2.964-.494a6.951,6.951,0,0,0,3.193-1.426l4.288-3.43a4.17,4.17,0,0,1,2.6-.911H87V31.516ZM25.968,3.774H62.032a4.166,4.166,0,0,1,4.161,4.161V12.1H21.806V7.935A4.166,4.166,0,0,1,25.968,3.774Zm-4.161,11.1H66.194v11.1H63.419V17.645H24.581v7.407a19.446,19.446,0,0,0-2.774-.423ZM38.549,50.935H65.608a1.92,1.92,0,0,1-1.006.519L50.935,53.94v3.681a4.417,4.417,0,0,0,4.412,4.411h.886a4.463,4.463,0,0,0,.724-.06l3.687-.614v6.223H27.355V62.135A19.323,19.323,0,0,0,38.549,50.935Zm23.484,33.29H25.968a4.166,4.166,0,0,1-4.161-4.161V75.9H66.194v4.161A4.166,4.166,0,0,1,62.032,84.226Zm4.161-11.1H21.806V63.364a19.51,19.51,0,0,0,2.774-.4v7.395H63.419v-9.46l2.774-.462ZM84.226,50.935H82.011a6.956,6.956,0,0,0-4.333,1.52l-4.287,3.43a4.165,4.165,0,0,1-1.914.856L56.5,59.237a1.68,1.68,0,0,1-.265.021h-.886a1.638,1.638,0,0,1-1.637-1.637V56.255L65.1,54.184a4.711,4.711,0,0,0,3.869-4.636V48.161H35.677a1.387,1.387,0,1,1,0-2.774H66.194V42.613H46.774a1.387,1.387,0,1,1,0-2.774H66.194V37.065H49.548a1.387,1.387,0,1,1,0-2.774H66.194V31.516H52.323a1.387,1.387,0,1,1,0-2.774h5.548V25.968H52.323a4.148,4.148,0,0,0-3.856,5.709,4.126,4.126,0,0,0-2.774,5.548,4.092,4.092,0,0,0-2.824,5.387h-3.1A19.445,19.445,0,0,0,27.355,25.868V20.419h33.29v8.323H71.183a4.171,4.171,0,0,1,2.6.911l3.9,3.117a6.949,6.949,0,0,0,4.332,1.52h2.215Z" transform="translate(0 0)" fill="#003056"/>
    <path id="Path_214" data-name="Path 214" d="M20.792,28V26c0-2.206-2.115-4-4.717-4s-4.717,1.794-4.717,4v4.184A3.077,3.077,0,0,0,9,33v6a3.306,3.306,0,0,0,3.538,3h7.075a3.306,3.306,0,0,0,3.537-3V33a3.306,3.306,0,0,0-3.537-3h-5.9V26a2.2,2.2,0,0,1,2.358-2,2.2,2.2,0,0,1,2.358,2v2Zm0,5v6a1.1,1.1,0,0,1-1.179,1H12.538a1.1,1.1,0,0,1-1.179-1V33a1.1,1.1,0,0,1,1.179-1h7.075A1.1,1.1,0,0,1,20.792,33Z" transform="translate(2 12)" fill="#003056"/>
  </g>
</svg>
