<svg id="Twitter" xmlns="http://www.w3.org/2000/svg" width="29.539" height="24" viewBox="0 0 29.539 24">
  <path id="Path_2" data-name="Path 2" d="M1104.539,556.841a12.623,12.623,0,0,1-3.49.956,6.021,6.021,0,0,0,2.664-3.347,12.094,12.094,0,0,1-3.84,1.466,6.055,6.055,0,0,0-10.475,4.141,6.233,6.233,0,0,0,.14,1.381,17.14,17.14,0,0,1-12.482-6.334,6.057,6.057,0,0,0,1.861,8.094,5.979,5.979,0,0,1-2.736-.746v.067a6.084,6.084,0,0,0,4.852,5.95,6.047,6.047,0,0,1-1.588.2,5.362,5.362,0,0,1-1.146-.1,6.113,6.113,0,0,0,5.658,4.218,12.167,12.167,0,0,1-7.508,2.583,11.314,11.314,0,0,1-1.449-.083,17.048,17.048,0,0,0,9.29,2.718c11.143,0,17.235-9.231,17.235-17.232,0-.268-.009-.526-.022-.783a12.081,12.081,0,0,0,3.035-3.144Zm0,0" transform="translate(-1075 -554)" fill="#03a9f4"/>
</svg>
