<svg xmlns="http://www.w3.org/2000/svg" width="21.273" height="19.758" viewBox="0 0 21.273 19.758">
  <g id="warning" transform="translate(0 -18.238)">
    <path id="Path_189" data-name="Path 189" d="M20.359,38.015H.91a.907.907,0,0,1-.8-1.338L9.838,18.732a.907.907,0,0,1,1.593,0c10.546,19.46,9.835,18.048,9.835,18.377A.906.906,0,0,1,20.359,38.015Z" transform="translate(-0.003 -0.019)" fill="#f2d422"/>
    <path id="Path_190" data-name="Path 190" d="M1.055,36.658C11.486,17.408,10.8,18.558,11.1,18.371a.906.906,0,0,0-1.269.341L.111,36.658A.907.907,0,0,0,.907,38h.944A.907.907,0,0,1,1.055,36.658Z" transform="translate(0 0)" fill="#e5c213"/>
    <path id="Path_191" data-name="Path 191" d="M63.387,90H46.981a.5.5,0,0,1-.437-.734l8.2-15.138a.5.5,0,0,1,.874,0l8.2,15.138A.5.5,0,0,1,63.387,90Zm-15.571-.994H62.552l-7.368-13.6Z" transform="translate(-44.552 -53.321)" fill="#585a60"/>
    <path id="Path_192" data-name="Path 192" d="M47.7,89.748c-.17-.285,0-.508.131-.751h-.014l7.368-13.6.007.013.565-1.043c-.123-.227-.225-.51-.572-.51a.5.5,0,0,0-.437.26l-8.2,15.138a.5.5,0,0,0,.437.734h1.144A.5.5,0,0,1,47.7,89.748Z" transform="translate(-44.551 -53.31)" fill="#414356"/>
    <g id="Group_150" data-name="Group 150" transform="translate(9.833 26.983)">
      <path id="Path_193" data-name="Path 193" d="M238.149,228.708h-.625a.473.473,0,0,0-.473.473l.118,3.517a.473.473,0,0,0,.473.473h.388a.473.473,0,0,0,.473-.473l.118-3.517A.473.473,0,0,0,238.149,228.708Z" transform="translate(-237.035 -228.708)" fill="#585a60"/>
      <circle id="Ellipse_101" data-name="Ellipse 101" cx="0.817" cy="0.817" r="0.817" transform="translate(0 5.492)" fill="#585a60"/>
    </g>
    <g id="Group_151" data-name="Group 151" transform="translate(9.833 26.982)">
      <path id="Path_194" data-name="Path 194" d="M238.026,232.685l-.118-3.517a.473.473,0,0,1,.357-.458,3.6,3.6,0,0,0-.741-.015.473.473,0,0,0-.473.473l.118,3.517a.473.473,0,0,0,.473.473c.406,0,.485.016.622-.062A.472.472,0,0,1,238.026,232.685Z" transform="translate(-237.034 -228.695)" fill="#414356"/>
      <path id="Path_195" data-name="Path 195" d="M237.883,360.994a.816.816,0,1,0,0,1.389A.815.815,0,0,1,237.883,360.994Z" transform="translate(-236.638 -355.379)" fill="#414356"/>
    </g>
  </g>
</svg>
