<svg id="YouTube" xmlns="http://www.w3.org/2000/svg" width="34.909" height="24" viewBox="0 0 34.909 24">
  <path id="Path_3" data-name="Path 3" d="M1108.425,581.313c-.947-1.685-1.974-1.994-4.067-2.112-2.09-.142-7.346-.2-11.9-.2s-9.82.059-11.908.2c-2.088.12-3.118.428-4.073,2.114-.976,1.682-1.477,4.58-1.477,9.681v.018c0,5.079.5,8,1.477,9.663.955,1.684,1.983,1.99,4.071,2.132,2.09.122,7.348.194,11.91.194s9.81-.072,11.9-.192c2.092-.142,3.12-.447,4.067-2.132.984-1.664,1.482-4.584,1.482-9.663V591c0-5.1-.5-8-1.484-9.683Zm0,0" transform="translate(-1075 -579)" fill="#f44336"/>
  <path id="Path_4" data-name="Path 4" d="M1228.6,658.292V643l8.708,7.646Zm0,0" transform="translate(-1214.311 -638.646)" fill="#fafafa"/>
</svg>
